<?xml version="1.0" encoding="utf-8"?>
<!-- Generator: Adobe Illustrator 24.0.0, SVG Export Plug-In . SVG Version: 6.00 Build 0)  -->
<svg version="1.1" id="Layer_1" xmlns="http://www.w3.org/2000/svg" xmlns:xlink="http://www.w3.org/1999/xlink" x="0px" y="0px"
	 viewBox="0 0 512 512" style="enable-background:new 0 0 512 512;" xml:space="preserve">
<style type="text/css">
	.st0{fill:#E15E23;}
	.st1{fill:#FAB84E;}
	.st2{fill:#FDF9D4;}
	.st3{fill:#7D4F3F;}
	.st4{fill:#A8CD74;}
	.st5{fill:none;stroke:#2D2D3E;stroke-width:2;stroke-linecap:round;stroke-linejoin:round;stroke-miterlimit:10;}
</style>
<g id="XMLID_5_">
	<g>
		<path class="st0" d="M368.91,328.54h-4.45H136.82h-2.58c-10.26,0-18.56-8.29-18.56-18.56c0-5.11,2.06-9.75,5.44-13.12
			c2.53-2.53,5.76-4.31,9.37-5.06c1.22-0.23,2.44-0.37,3.75-0.37h76.66h80.6h77.41c1.31,0,2.53,0.14,3.75,0.37
			c8.43,1.73,14.81,9.23,14.81,18.18c0,5.15-2.06,9.75-5.44,13.12S374.06,328.54,368.91,328.54z"/>
		<path class="st1" d="M366.85,330.97v39.55c0,2.81-2.25,5.01-5.01,5.01H139.44c-2.76,0-5.01-2.2-5.01-5.01v-39.55
			c0-1.36,1.08-2.44,2.39-2.44h227.64C365.77,328.54,366.85,329.61,366.85,330.97z"/>
		<path class="st1" d="M369.28,230.6c0,5.44-2.2,10.31-5.72,13.87c-3.56,3.51-8.43,5.72-13.82,5.72H156.92
			c-10.78,0-19.54-8.76-19.54-19.59c0-26.01,10.54-49.58,27.6-66.59c17.06-17.06,40.58-27.6,66.59-27.6h43.53
			C327.11,136.42,369.28,178.59,369.28,230.6z M312.49,170.62c0-2.62-2.11-4.69-4.69-4.69c-2.58,0-4.69,2.06-4.69,4.69
			c0,2.53,2.11,4.69,4.69,4.69C310.38,175.31,312.49,173.15,312.49,170.62z M293.75,194.05c0-2.62-2.11-4.69-4.69-4.69
			c-2.58,0-4.69,2.06-4.69,4.69c0,2.53,2.11,4.69,4.69,4.69C291.64,198.74,293.75,196.58,293.75,194.05z M275,170.62
			c0-2.62-2.11-4.69-4.69-4.69c-2.58,0-4.69,2.06-4.69,4.69c0,2.53,2.11,4.69,4.69,4.69C272.89,175.31,275,173.15,275,170.62z
			 M256.26,194.05c0-2.62-2.11-4.69-4.69-4.69s-4.69,2.06-4.69,4.69c0,2.53,2.11,4.69,4.69,4.69S256.26,196.58,256.26,194.05z
			 M237.52,170.62c0-2.62-2.11-4.69-4.69-4.69s-4.69,2.06-4.69,4.69c0,2.53,2.11,4.69,4.69,4.69S237.52,173.15,237.52,170.62z
			 M218.77,194.05c0-2.62-2.11-4.69-4.69-4.69s-4.69,2.06-4.69,4.69c0,2.53,2.11,4.69,4.69,4.69S218.77,196.58,218.77,194.05z
			 M200.03,170.62c0-2.62-2.11-4.69-4.69-4.69s-4.69,2.06-4.69,4.69c0,2.53,2.11,4.69,4.69,4.69S200.03,173.15,200.03,170.62z"/>
		<circle class="st2" cx="307.8" cy="170.62" r="4.69"/>
		<path class="st3" d="M303.59,287.02l18.88-7.87c8.25-3.47,17.76-3.19,25.77,0.66l17.52,8.43c2.3,1.12,4.73,1.78,7.12,2.06
			l-0.23,1.5c-1.22-0.23-2.44-0.37-3.75-0.37H291.5v-1.97C295.62,289.46,299.74,288.66,303.59,287.02z"/>
		<circle class="st2" cx="289.06" cy="194.05" r="4.69"/>
		<circle class="st2" cx="270.32" cy="170.62" r="4.69"/>
		<circle class="st2" cx="251.57" cy="194.05" r="4.69"/>
		<circle class="st2" cx="232.83" cy="170.62" r="4.69"/>
		<path class="st3" d="M278.05,286.46c4.22,1.97,8.86,3,13.45,3v1.97h-80.6v-2.3c4.59,0,9.18-0.98,13.4-2.95l13.12-6.19
			c8.43-3.94,18.32-3.94,26.76,0L278.05,286.46z"/>
		<circle class="st2" cx="214.09" cy="194.05" r="4.69"/>
		<circle class="st2" cx="195.34" cy="170.62" r="4.69"/>
		<path class="st3" d="M210.9,291.42h-76.66c-1.31,0-2.53,0.14-3.75,0.37l-0.19-1.27c2.3-0.23,4.59-0.84,6.79-1.83l20.8-9.18
			c8.29-3.65,17.9-3.56,26.15,0.28l13.5,6.37c4.22,1.97,8.81,2.95,13.35,2.95V291.42z"/>
		<path class="st4" d="M396.83,271.37c0,0.84-0.05,1.59-0.14,2.44c-1.41,11.06-12.65,17.85-23.8,16.49
			c-2.39-0.28-4.83-0.94-7.12-2.06l-17.52-8.43c-8.01-3.84-17.52-4.12-25.77-0.66l-18.88,7.87c-3.84,1.64-7.97,2.44-12.09,2.44
			c-4.59,0-9.23-1.03-13.45-3l-13.87-6.47c-8.43-3.94-18.32-3.94-26.76,0l-13.12,6.19c-4.22,1.97-8.81,2.95-13.4,2.95
			c-4.55,0-9.14-0.98-13.35-2.95l-13.5-6.37c-8.25-3.84-17.85-3.94-26.15-0.28l-20.8,9.18c-2.2,0.98-4.5,1.59-6.79,1.83
			c-11.25,1.31-22.49-5.62-23.85-16.73c-0.09-0.84-0.14-1.59-0.14-2.44c0-5.86,2.53-11.15,6.56-14.95c4.08-3.8,9.65-6.14,15.88-6.14
			h245.63C386.81,250.28,396.83,259.65,396.83,271.37z"/>
	</g>
	<g>
		<path class="st5" d="M349.74,250.19H156.92c-10.78,0-19.54-8.76-19.54-19.59c0-26.01,10.54-49.58,27.6-66.59
			c17.06-17.06,40.58-27.6,66.59-27.6h43.53c52.01,0,94.18,42.17,94.18,94.18c0,5.44-2.2,10.31-5.72,13.87
			C360,247.99,355.13,250.19,349.74,250.19z"/>
		<path class="st5" d="M364.46,328.54c1.31,0,2.39,1.08,2.39,2.44v39.55c0,2.81-2.25,5.01-5.01,5.01H139.44
			c-2.76,0-5.01-2.2-5.01-5.01v-39.55c0-1.36,1.08-2.44,2.39-2.44"/>
		<path class="st5" d="M372.89,290.3c-2.39-0.28-4.83-0.94-7.12-2.06l-17.52-8.43c-8.01-3.84-17.52-4.12-25.77-0.66l-18.88,7.87
			c-3.84,1.64-7.97,2.44-12.09,2.44c-4.59,0-9.23-1.03-13.45-3l-13.87-6.47c-8.43-3.94-18.32-3.94-26.76,0l-13.12,6.19
			c-4.22,1.97-8.81,2.95-13.4,2.95c-4.55,0-9.14-0.98-13.35-2.95l-13.5-6.37c-8.25-3.84-17.85-3.94-26.15-0.28l-20.8,9.18
			c-2.2,0.98-4.5,1.59-6.79,1.83c-11.25,1.31-22.49-5.62-23.85-16.73c-0.09-0.84-0.14-1.59-0.14-2.44c0-5.86,2.53-11.15,6.56-14.95
			c4.08-3.8,9.65-6.14,15.88-6.14h245.63c12.42,0,22.45,9.37,22.45,21.09c0,0.84-0.05,1.59-0.14,2.44
			C395.29,284.86,384.04,291.66,372.89,290.3z"/>
		<path class="st5" d="M372.66,291.8c8.43,1.73,14.81,9.23,14.81,18.18c0,5.15-2.06,9.75-5.44,13.12s-7.97,5.44-13.12,5.44h-4.45
			H136.82h-2.58c-10.26,0-18.56-8.29-18.56-18.56c0-5.11,2.06-9.75,5.44-13.12c2.53-2.53,5.76-4.31,9.37-5.06
			c1.22-0.23,2.44-0.37,3.75-0.37h76.66h80.6h77.41C370.22,291.42,371.44,291.57,372.66,291.8z"/>
	</g>
</g>
</svg>
