<?xml version="1.0" encoding="utf-8"?>
<!-- Generator: Adobe Illustrator 16.0.0, SVG Export Plug-In . SVG Version: 6.00 Build 0)  -->
<!DOCTYPE svg PUBLIC "-//W3C//DTD SVG 1.1//EN" "http://www.w3.org/Graphics/SVG/1.1/DTD/svg11.dtd">
<svg version="1.1" id="Livello_1" xmlns="http://www.w3.org/2000/svg" xmlns:xlink="http://www.w3.org/1999/xlink" x="0px" y="0px"
	 width="100px" height="100px" viewBox="0 0 100 100" enable-background="new 0 0 100 100" xml:space="preserve">
<rect fill="none" width="100" height="100"/>
<g>
	<g>
		<path fill="#E09868" d="M50,17.897c-17.739,0-32.118,14.38-32.118,32.118c0,17.738,14.379,32.117,32.118,32.117
			c17.738,0,32.118-14.379,32.118-32.117C82.118,32.277,67.738,17.897,50,17.897z M50,76.051c-14.379,0-26.036-11.657-26.036-26.036
			c0-14.379,11.657-26.036,26.036-26.036s26.035,11.657,26.035,26.036C76.035,64.394,64.379,76.051,50,76.051z"/>
		<path fill="#EFAF84" d="M50,23.979c-14.379,0-26.036,11.657-26.036,26.036c0,14.378,11.657,26.036,26.036,26.036
			s26.035-11.657,26.035-26.036C76.035,35.636,64.379,23.979,50,23.979z M50,69.008c-10.489,0-18.993-8.504-18.993-18.993
			c0-10.489,8.504-18.993,18.993-18.993c10.49,0,18.993,8.504,18.993,18.993C68.993,60.504,60.49,69.008,50,69.008z"/>
		<path fill="#E09868" d="M50,31.022c-10.489,0-18.993,8.504-18.993,18.993c0,10.489,8.504,18.993,18.993,18.993
			c10.49,0,18.993-8.504,18.993-18.993C68.993,39.526,60.49,31.022,50,31.022z M50,59.368c-5.166,0-9.354-4.188-9.354-9.353
			c0-5.166,4.188-9.353,9.354-9.353c5.165,0,9.354,4.187,9.354,9.353C59.354,55.181,55.165,59.368,50,59.368z"/>
	</g>
	<path fill="#8E5E5B" d="M40.959,52.421c0,0-3.444,9.651-12.407,4.316c0,0-7.131-3.027-9.114,3.181c0,0-8.812-26.442,17.804-39.387
		c0,0,31.751-13.745,43.801,21.213c0,0-6.607-2.506-10.022,2.829c0,0-2.625,8.118-11.77,4.059c0,0-1.251-9.242-10.907-7.824
		C48.344,40.808,39.495,42.023,40.959,52.421z"/>
	<path fill="#4CC936" d="M38.061,34.811c0,0.206-0.167,0.373-0.374,0.373h-3.948c-0.207,0-0.374-0.167-0.374-0.373v-0.854
		c0-0.207,0.167-0.374,0.374-0.374h3.948c0.206,0,0.374,0.167,0.374,0.374V34.811z"/>
	<path fill="#4C91E5" d="M44.322,36.051c0.127,0.163,0.098,0.397-0.064,0.524l-3.114,2.428c-0.164,0.127-0.397,0.098-0.524-0.065
		l-0.524-0.673c-0.128-0.163-0.099-0.397,0.064-0.524l3.113-2.428c0.163-0.127,0.397-0.098,0.524,0.065L44.322,36.051z"/>
	<path fill="#4C91E5" d="M36.662,25.021c0.178,0.104,0.237,0.333,0.133,0.511l-1.998,3.405c-0.104,0.178-0.333,0.238-0.511,0.133
		L33.55,28.64c-0.178-0.104-0.238-0.333-0.134-0.511l1.998-3.405c0.104-0.178,0.333-0.238,0.511-0.133L36.662,25.021z"/>
	<path fill="#F74B4B" d="M33.956,38.694c0.205,0.015,0.361,0.193,0.346,0.399l-0.277,3.938c-0.014,0.206-0.193,0.361-0.398,0.347
		l-0.852-0.06c-0.206-0.015-0.36-0.193-0.347-0.399l0.277-3.938c0.015-0.206,0.193-0.361,0.399-0.347L33.956,38.694z"/>
	<path fill="#F74B4B" d="M27.615,35.577c0.205,0.014,0.361,0.193,0.346,0.399l-0.277,3.938c-0.014,0.206-0.193,0.361-0.398,0.347
		l-0.852-0.06c-0.206-0.015-0.36-0.193-0.347-0.399l0.277-3.938c0.015-0.206,0.193-0.361,0.399-0.347L27.615,35.577z"/>
	<path fill="#F4E808" d="M37.181,41.161c0.175-0.109,0.405-0.056,0.514,0.119l2.089,3.351c0.11,0.175,0.056,0.404-0.119,0.514
		l-0.725,0.452c-0.175,0.108-0.405,0.056-0.515-0.119l-2.089-3.351c-0.11-0.175-0.056-0.404,0.119-0.514L37.181,41.161z"/>
	<path fill="#F4E808" d="M30.965,29.844c0.207-0.002,0.375,0.163,0.378,0.369l0.052,3.948c0.002,0.207-0.162,0.375-0.369,0.378
		l-0.854,0.011c-0.206,0.002-0.375-0.163-0.378-0.369l-0.052-3.948c-0.003-0.207,0.162-0.376,0.368-0.378L30.965,29.844z"/>
	<g>
		<path fill="#4CC936" d="M44.047,22.134c0,0.207-0.167,0.374-0.373,0.374h-3.948c-0.206,0-0.373-0.167-0.373-0.374V21.28
			c0-0.206,0.167-0.374,0.373-0.374h3.948c0.206,0,0.373,0.167,0.373,0.374V22.134z"/>
		<path fill="#4C91E5" d="M50.309,23.375c0.127,0.163,0.098,0.397-0.065,0.524l-3.113,2.428c-0.163,0.127-0.398,0.098-0.525-0.064
			l-0.525-0.674c-0.126-0.163-0.098-0.397,0.065-0.524l3.114-2.428c0.163-0.126,0.397-0.098,0.524,0.065L50.309,23.375z"/>
		<path fill="#F74B4B" d="M39.942,26.018c0.206,0.014,0.361,0.193,0.347,0.398l-0.277,3.938c-0.015,0.206-0.193,0.361-0.399,0.346
			l-0.851-0.06c-0.206-0.015-0.361-0.193-0.347-0.399l0.277-3.938c0.014-0.206,0.193-0.36,0.398-0.346L39.942,26.018z"/>
		<path fill="#F4E808" d="M43.167,28.484c0.175-0.109,0.406-0.056,0.515,0.119l2.089,3.35c0.109,0.175,0.056,0.405-0.119,0.515
			l-0.724,0.452c-0.175,0.109-0.406,0.056-0.515-0.119l-2.089-3.35c-0.109-0.175-0.056-0.405,0.119-0.514L43.167,28.484z"/>
	</g>
	<path fill="#4CC936" d="M53.904,29.3c0.184-0.094,0.408-0.021,0.503,0.162l1.798,3.515c0.095,0.184,0.022,0.409-0.162,0.503
		l-0.76,0.389c-0.183,0.094-0.408,0.021-0.502-0.162l-1.799-3.515c-0.094-0.184-0.021-0.409,0.162-0.502L53.904,29.3z"/>
	<path fill="#4CC936" d="M66.322,25.399c0.183-0.094,0.408-0.021,0.502,0.162l1.799,3.515c0.094,0.184,0.021,0.409-0.162,0.502
		l-0.76,0.389c-0.184,0.094-0.409,0.021-0.503-0.163l-1.799-3.515c-0.095-0.183-0.021-0.408,0.162-0.502L66.322,25.399z"/>
	<path fill="#4C91E5" d="M52.156,23.161c0.087-0.187,0.309-0.268,0.496-0.181l3.58,1.666c0.187,0.087,0.268,0.309,0.181,0.496
		l-0.36,0.774c-0.087,0.187-0.31,0.268-0.496,0.181l-3.58-1.666c-0.187-0.087-0.268-0.309-0.181-0.496L52.156,23.161z"/>
	<path fill="#F74B4B" d="M59.231,31.185c-0.081-0.19,0.007-0.41,0.197-0.49l3.632-1.547c0.19-0.081,0.409,0.007,0.49,0.197
		l0.335,0.785c0.081,0.189-0.007,0.409-0.197,0.49l-3.632,1.548c-0.19,0.081-0.409-0.008-0.49-0.197L59.231,31.185z"/>
	<path fill="#F4E808" d="M59.958,27.191c-0.177-0.106-0.233-0.335-0.128-0.512l2.03-3.386c0.105-0.177,0.336-0.234,0.513-0.128
		l0.732,0.439c0.177,0.106,0.233,0.335,0.127,0.513l-2.029,3.386c-0.106,0.177-0.336,0.234-0.513,0.128L59.958,27.191z"/>
	<g>
		<path fill="#4CC936" d="M62.815,39.506c0.184-0.094,0.408-0.021,0.502,0.162l1.799,3.515c0.095,0.184,0.021,0.408-0.162,0.503
			l-0.76,0.389c-0.184,0.094-0.409,0.021-0.503-0.162l-1.799-3.515c-0.094-0.184-0.021-0.409,0.162-0.503L62.815,39.506z"/>
		<path fill="#4C91E5" d="M61.066,33.367c0.088-0.187,0.31-0.268,0.497-0.181l3.579,1.666c0.187,0.087,0.268,0.309,0.181,0.496
			l-0.36,0.774c-0.087,0.187-0.309,0.268-0.496,0.181l-3.579-1.666c-0.187-0.087-0.269-0.31-0.182-0.497L61.066,33.367z"/>
		<path fill="#F74B4B" d="M68.142,41.39c-0.08-0.189,0.008-0.408,0.198-0.489l3.632-1.548c0.189-0.081,0.409,0.007,0.489,0.197
			l0.335,0.785c0.081,0.189-0.007,0.409-0.197,0.49l-3.632,1.548c-0.189,0.08-0.409-0.008-0.49-0.197L68.142,41.39z"/>
		<path fill="#F4E808" d="M68.869,37.396c-0.178-0.106-0.234-0.335-0.128-0.512l2.029-3.386c0.106-0.177,0.336-0.234,0.513-0.128
			l0.732,0.439c0.177,0.105,0.233,0.335,0.128,0.512l-2.03,3.386c-0.105,0.177-0.336,0.235-0.513,0.128L68.869,37.396z"/>
	</g>
	<path fill="#4CC936" d="M62.815,39.506c0.184-0.094,0.408-0.021,0.502,0.162l1.799,3.515c0.095,0.184,0.021,0.408-0.162,0.503
		l-0.76,0.389c-0.184,0.094-0.409,0.021-0.503-0.162l-1.799-3.515c-0.094-0.184-0.021-0.409,0.162-0.503L62.815,39.506z"/>
	<path fill="#4C91E5" d="M61.066,33.173c0.088-0.187,0.31-0.268,0.497-0.181l3.579,1.666c0.187,0.087,0.268,0.309,0.181,0.496
		l-0.36,0.774c-0.087,0.187-0.309,0.268-0.496,0.181l-3.579-1.666c-0.187-0.087-0.269-0.309-0.182-0.496L61.066,33.173z"/>
	<path fill="#4C91E5" d="M73.221,35.781c0.087-0.187,0.31-0.269,0.496-0.181l3.58,1.666c0.188,0.087,0.268,0.309,0.181,0.496
		l-0.36,0.774c-0.086,0.187-0.309,0.268-0.496,0.181l-3.579-1.666c-0.188-0.087-0.269-0.309-0.182-0.496L73.221,35.781z"/>
	<path fill="#F74B4B" d="M68.142,41.39c-0.08-0.189,0.008-0.408,0.198-0.489l3.632-1.548c0.189-0.081,0.409,0.007,0.489,0.197
		l0.335,0.785c0.081,0.189-0.007,0.409-0.197,0.49l-3.632,1.548c-0.189,0.08-0.409-0.008-0.49-0.197L68.142,41.39z"/>
	<path fill="#F4E808" d="M68.869,37.396c-0.178-0.106-0.234-0.335-0.128-0.512l2.029-3.386c0.106-0.177,0.336-0.234,0.513-0.128
		l0.732,0.439c0.177,0.105,0.233,0.335,0.128,0.512l-2.03,3.386c-0.105,0.177-0.336,0.235-0.513,0.128L68.869,37.396z"/>
	<g>
		<path fill="#4CC936" d="M27.024,45.208c0,0.206-0.167,0.374-0.374,0.374h-3.947c-0.207,0-0.374-0.168-0.374-0.374v-0.854
			c0-0.206,0.167-0.374,0.374-0.374h3.947c0.206,0,0.374,0.168,0.374,0.374V45.208z"/>
		<path fill="#4C91E5" d="M33.286,46.449c0.127,0.162,0.098,0.397-0.064,0.523l-3.114,2.429c-0.163,0.126-0.397,0.097-0.524-0.065
			l-0.525-0.674c-0.127-0.162-0.098-0.396,0.064-0.523l3.113-2.428c0.164-0.127,0.397-0.098,0.524,0.064L33.286,46.449z"/>
		<path fill="#F74B4B" d="M22.92,49.091c0.206,0.015,0.36,0.193,0.346,0.398l-0.277,3.938c-0.014,0.206-0.193,0.36-0.399,0.347
			l-0.852-0.06c-0.206-0.015-0.36-0.193-0.346-0.399l0.277-3.938c0.014-0.205,0.192-0.361,0.399-0.346L22.92,49.091z"/>
		<path fill="#F4E808" d="M26.145,51.558c0.175-0.109,0.405-0.056,0.515,0.119l2.089,3.35c0.109,0.176,0.056,0.405-0.119,0.515
			l-0.724,0.452c-0.175,0.108-0.405,0.055-0.514-0.12l-2.09-3.35c-0.109-0.175-0.055-0.405,0.12-0.514L26.145,51.558z"/>
	</g>
</g>
</svg>
